<svg xmlns="http://www.w3.org/2000/svg" viewBox="0 0 30 30" fill="white"><path d="M4.37 14.62c0-.24.08-.45.25-.62.17-.16.38-.24.6-.24h2.04c.23 0 .42.08.58.25a.89.89 0 0 1 .23.61.88.88 0 0 1-.22.61c-.15.17-.35.25-.58.25H5.23c-.23 0-.43-.08-.6-.25a.83.83 0 0 1-.26-.61zm2.86 6.93c0-.23.08-.43.23-.6l1.47-1.43c.15-.16.35-.23.6-.23s.44.08.6.23.24.34.24.57c0 .24-.08.46-.24.64L8.7 22.14c-.4.32-.82.32-1.23 0-.16-.16-.24-.36-.24-.6zm0-13.84c0-.23.08-.43.23-.6a.96.96 0 0 1 .64-.25.84.84 0 0 1 .59.24l1.43 1.47c.16.15.24.35.24.6s-.08.44-.24.6-.36.24-.6.24-.44-.08-.6-.24L7.47 8.32c-.16-.16-.24-.37-.24-.6zm2.55 6.9c0-.93.23-1.8.7-2.6a5.22 5.22 0 0 1 1.91-1.91c.8-.47 1.67-.7 2.6-.7.7 0 1.37.14 2.02.42.64.28 1.2.65 1.66 1.12.47.47.84 1.02 1.1 1.66s.4 1.32.4 2.02c0 .94-.23 1.8-.7 2.6s-1.1 1.43-1.9 1.9-1.67.7-2.6.7-1.8-.23-2.6-.7-1.43-1.1-1.9-1.9c-.45-.8-.7-1.68-.7-2.62zm1.7 0c0 .98.34 1.8 1.03 2.5.68.7 1.5 1.04 2.5 1.04s1.8-.35 2.5-1.04 1.04-1.52 1.04-2.5c0-.96-.35-1.78-1.04-2.47-.7-.68-1.52-1.02-2.5-1.02a3.38 3.38 0 0 0-2.48 1.02 3.33 3.33 0 0 0-1.04 2.47zm2.66 7.78c0-.24.08-.44.25-.6s.37-.24.6-.24c.24 0 .45.08.6.24s.24.36.24.6v2c0 .24-.08.45-.25.62s-.37.25-.6.25a.8.8 0 0 1-.6-.25c-.17-.17-.25-.38-.25-.62v-2zm0-15.5V4.86c0-.23.08-.43.25-.6A.83.83 0 0 1 15 4a.8.8 0 0 1 .6.25c.17.17.25.37.25.6V6.9c0 .23-.08.42-.25.58s-.37.23-.6.23-.44-.08-.6-.23-.26-.35-.26-.58zm5.52 13.18c0-.23.08-.42.23-.56.15-.16.34-.23.56-.23.24 0 .44.08.6.23l1.46 1.43a.87.87 0 0 1 .24.61c0 .23-.08.43-.24.6-.4.3-.8.3-1.2 0l-1.42-1.42c-.15-.18-.23-.4-.23-.65zm0-10.92c0-.25.08-.45.23-.6L21.3 7.1a.84.84 0 0 1 .59-.24c.24 0 .44.08.6.25.17.17.25.37.25.6 0 .25-.08.46-.24.62l-1.46 1.43c-.18.16-.38.24-.6.24-.23 0-.4-.08-.56-.24s-.23-.36-.23-.6zm2.26 5.46c0-.24.08-.44.24-.62a.78.78 0 0 1 .57-.24h2.02c.23 0 .43.1.6.26s.26.37.26.6-.1.43-.26.6-.37.25-.6.25h-2.02c-.23 0-.43-.08-.58-.25s-.23-.36-.23-.6z"/></svg>