<svg xmlns="http://www.w3.org/2000/svg" viewBox="0 0 30 30" fill="white"><path d="M7.9 14.48c0-.96.2-1.87.56-2.75a7 7 0 0 1 1.51-2.26c.63-.63 1.4-1.14 2.27-1.52A6.88 6.88 0 0 1 15 7.38h1.14c.16.04.23.14.23.28l.05.88c.04 1.27.5 2.35 1.37 3.24s1.94 1.37 3.2 1.42l.82.07c.16 0 .24.08.24.23v.98c.01 1.28-.3 2.47-.93 3.56s-1.48 1.95-2.57 2.6a6.94 6.94 0 0 1-3.55.95c-.97 0-1.9-.2-2.78-.56a7 7 0 0 1-2.26-1.51c-.63-.63-1.13-1.4-1.5-2.26-.35-.88-.54-1.8-.54-2.77zm1.83 0c0 .76.15 1.48.45 2.16.3.67.7 1.24 1.2 1.7s1.05.82 1.7 1.08c.63.27 1.28.4 1.94.4.58 0 1.17-.1 1.76-.34a6.24 6.24 0 0 0 1.65-.96c.5-.4.94-.93 1.3-1.57s.6-1.33.7-2.1c-1.63-.34-2.94-1.04-3.92-2.1s-1.55-2.3-1.7-3.74c-.96.06-1.82.35-2.6.88a5.51 5.51 0 0 0-1.82 2.02c-.43.82-.65 1.67-.65 2.56z"/></svg>