<svg xmlns="http://www.w3.org/2000/svg" viewBox="0 0 30 30" fill="white"><path d="M3.1 13.43c0 .27.1.5.28.67s.43.26.72.26h1.7c.27 0 .5-.1.7-.27a.88.88 0 0 0 .29-.66c0-.3-.1-.53-.28-.7s-.42-.28-.7-.28H4.1c-.3 0-.53.1-.72.28-.2.17-.28.4-.28.7zm1.77 6.18c0 .97.35 1.8 1.06 2.52s1.54 1.06 2.5 1.06h6.86a3.37 3.37 0 0 0 2.49-1.05 3.47 3.47 0 0 0 1.04-2.53c0-.48-.07-.9-.2-1.23.83-.53 1.5-1.24 1.97-2.12s.73-1.83.73-2.84a5.82 5.82 0 0 0-.48-2.33 6.1 6.1 0 0 0-1.28-1.91 6.1 6.1 0 0 0-1.91-1.28c-.74-.32-1.5-.48-2.32-.48-1.1 0-2.1.27-3.02.8s-1.65 1.27-2.18 2.18c-.53.92-.8 1.92-.8 3v.34a4.1 4.1 0 0 0-1.98 2.49c-.76.24-1.36.66-1.8 1.27a3.44 3.44 0 0 0-.68 2.09zM6.42 5.45c0 .28.1.5.26.67l1.6 1.7c.47.36.94.36 1.4 0a.94.94 0 0 0 .28-.7c0-.27-.1-.5-.28-.7L8.05 4.76c-.2-.2-.45-.3-.7-.3-.28 0-.5.1-.68.28s-.25.42-.25.7zm.42 14.16c0-.42.13-.78.4-1.08s.6-.47 1.02-.5l.62-.08c.13 0 .2-.08.2-.23l.1-.56c.07-.58.3-1.06.73-1.44.42-.4.9-.58 1.48-.58.58 0 1.1.2 1.5.58a2.26 2.26 0 0 1 .75 1.44l.08.65c.06.15.14.23.24.23h1.32c.43 0 .8.16 1.12.47s.47.68.47 1.12c0 .45-.16.83-.47 1.15s-.7.48-1.12.48H8.43c-.45 0-.83-.16-1.13-.48-.3-.32-.46-.7-.46-1.16zm4.42-6.4c.07-1.1.5-2 1.27-2.76.77-.74 1.7-1.12 2.8-1.12a3.85 3.85 0 0 1 2.84 1.19c.78.8 1.17 1.76 1.17 2.9a3.89 3.89 0 0 1-.51 1.95 4.08 4.08 0 0 1-1.38 1.45c-.6-.5-1.27-.73-2.03-.73A4.06 4.06 0 0 0 13.87 14c-.73-.52-1.56-.78-2.48-.78h-.13zm3.1-8.75c0 .27.1.5.3.7s.42.3.7.3a.95.95 0 0 0 .7-.29.95.95 0 0 0 .29-.7V2.13a.88.88 0 0 0-.29-.66c-.2-.18-.42-.27-.7-.27-.27 0-.5.1-.7.27a.88.88 0 0 0-.29.66v2.34zm6.32 15.23c0 .27.1.5.27.7l1.64 1.62c.42.42.9.42 1.4 0 .18-.17.26-.4.26-.68 0-.27-.1-.5-.26-.67L22.3 19c-.18-.17-.4-.25-.68-.25a.91.91 0 0 0-.68.27c-.18.18-.27.4-.27.68zm0-12.6a1.04 1.04 0 0 0 .27.72c.18.18.4.27.68.27s.5-.1.68-.27l1.7-1.7c.18-.17.26-.4.26-.67s-.1-.5-.3-.7a.98.98 0 0 0-.7-.28c-.26 0-.5.1-.68.3L20.94 6.4c-.18.18-.27.4-.27.7zm2.58 6.34c0 .27.1.5.28.67s.43.26.72.26h1.7c.27 0 .5-.1.7-.27a.88.88 0 0 0 .29-.66c0-.3-.1-.53-.28-.7s-.42-.28-.7-.28h-1.7c-.3 0-.53.1-.72.28-.2.17-.3.4-.3.7z"/></svg>