<svg xmlns="http://www.w3.org/2000/svg" viewBox="0 0 30 30" fill="white"><path d="M6.77 19.65a3.42 3.42 0 0 1 .68-2.09c.45-.6 1.06-1.03 1.8-1.27a4.08 4.08 0 0 1 1.99-2.49v-.35c0-1.46.46-2.74 1.38-3.85s2.1-1.8 3.5-2.06a6.56 6.56 0 0 1 1.08-.09h.03c.2 0 .44.02.7.05.26.02.5.06.73.1l.9.28c.13.07.18.16.16.26l-.13.7c-.07.33-.1.65-.1.97 0 .35.05.7.16 1.07.1.37.27.72.5 1.08a3.61 3.61 0 0 0 .91.97c.38.3.83.5 1.33.66l.7.2c.1.03.17.08.17.18 0 .04 0 .06-.01.07l-.18.68-.22.73c-.15.44-.38.9-.7 1.37-.45.62-1 1.15-1.65 1.57.14.34.2.75.2 1.24a3.47 3.47 0 0 1-1.04 2.53 3.37 3.37 0 0 1-2.49 1.05h-6.85c-.97 0-1.8-.35-2.52-1.06-.7-.7-1.06-1.55-1.06-2.52zm1.98 0c0 .45.15.83.46 1.15s.7.47 1.14.47h6.85c.43 0 .8-.16 1.12-.48s.47-.7.47-1.14c0-.43-.16-.8-.47-1.12s-.7-.47-1.12-.47h-1.3c-.1 0-.2-.07-.25-.23l-.08-.64a2.21 2.21 0 0 0-.75-1.44 2.21 2.21 0 0 0-1.51-.58c-.57 0-1.06.2-1.48.58a2.28 2.28 0 0 0-.73 1.44l-.1.55c0 .15-.06.22-.2.22l-.63.08c-.4.04-.75.2-1.02.5a1.65 1.65 0 0 0-.41 1.1zm4.43-6.4h.12c.93 0 1.75.26 2.5.78.73.52 1.25 1.22 1.54 2.1.77 0 1.45.24 2.03.72a3.93 3.93 0 0 0 1.53-1.75c-1.04-.52-1.85-1.27-2.43-2.25s-.88-2-.88-3.1V9.4h-.24a4.22 4.22 0 0 0-1.77.39c-.57.26-1.05.64-1.44 1.12l-.03-.02c-.55.68-.85 1.47-.92 2.37z"/></svg>