<svg xmlns="http://www.w3.org/2000/svg" viewBox="0 0 30 30" fill="white"><path d="M1.56 16.9c0 .9.22 1.73.66 2.5s1.04 1.36 1.8 1.8 1.58.66 2.47.66h10.83c.9 0 1.72-.22 2.48-.66s1.37-1.04 1.8-1.8a4.89 4.89 0 0 0 .67-2.49c0-.66-.14-1.33-.42-2 .76-.92 1.14-2.03 1.14-3.3a5.27 5.27 0 0 0-.41-2.04 5.11 5.11 0 0 0-1.12-1.67 5.11 5.11 0 0 0-1.67-1.12c-.65-.28-1.33-.4-2.04-.4-1.48 0-2.77.58-3.88 1.74-.77-.44-1.67-.66-2.7-.66-1.4 0-2.65.44-3.73 1.3s-1.78 2-2.08 3.35c-1.12.26-2.03.83-2.74 1.73a4.82 4.82 0 0 0-1.07 3.07zm1.7 0c0-.84.28-1.56.84-2.17a3.28 3.28 0 0 1 2.1-1.06l.5-.03c.12 0 .2-.06.2-.18l.07-.54c.14-1.08.6-2 1.4-2.7.8-.73 1.74-1.1 2.8-1.1 1.1 0 2.06.37 2.87 1.1a3.99 3.99 0 0 1 1.37 2.71l.07.58a.19.19 0 0 0 .21.17h1.6c.88 0 1.64.32 2.28.96s.96 1.4.96 2.27c0 .9-.32 1.68-.95 2.32s-1.4.96-2.28.96H6.5c-.88 0-1.63-.32-2.27-.97-.63-.65-.95-1.42-.95-2.32zm6.7-12.27a.92.92 0 0 0 .24.63l.66.64c.25.2.46.27.64.25.2 0 .4-.1.55-.26s.24-.38.24-.62-.1-.44-.26-.6l-.6-.66c-.18-.16-.38-.24-.6-.24-.24 0-.45.08-.62.25-.17.16-.25.36-.25.6zm5.34 4.43c.7-.67 1.5-1 2.45-1 1 0 1.83.34 2.52 1.03a3.41 3.41 0 0 1 1.04 2.51c0 .62-.17 1.24-.5 1.84-.97-.96-2.13-1.44-3.5-1.44H17c-.25-1.1-.8-2.07-1.7-2.94zm1.63-5.28c0 .26.08.46.23.62s.35.23.6.23c.26 0 .46-.08.62-.23.16-.16.23-.36.23-.62V1.73a.79.79 0 0 0-.24-.59C18.2.98 18 .9 17.76.9c-.24 0-.43.08-.6.23s-.23.35-.23.6v2.05zm5.52 2.3c0 .26.07.46.22.62.2.16.42.24.62.24.18 0 .38-.08.6-.24l1.43-1.43c.16-.18.24-.4.24-.64 0-.24-.08-.44-.24-.6s-.36-.24-.6-.24c-.24 0-.43.08-.58.24l-1.47 1.43a.96.96 0 0 0-.22.62zm.8 11.84c0 .24.08.45.25.63l.65.63c.15.16.34.24.58.24s.44-.08.6-.25a.86.86 0 0 0 .24-.62.8.8 0 0 0-.24-.58l-.65-.65a.78.78 0 0 0-.57-.24c-.24 0-.44.08-.6.24-.17.16-.26.36-.26.6zm1.47-6.3c0 .23.1.42.26.58.16.16.37.24.6.24h2.04c.23 0 .42-.08.58-.23s.23-.35.23-.6-.08-.44-.23-.6-.35-.25-.58-.25H25.6a.82.82 0 0 0-.61.25.79.79 0 0 0-.26.6z"/></svg>