<svg xmlns="http://www.w3.org/2000/svg" viewBox="0 0 30 30" fill="white"><path d="M4.14 16.9c0-1.16.35-2.18 1.06-3.08a4.68 4.68 0 0 1 2.74-1.72c.23-1.03.7-1.93 1.4-2.7a5.93 5.93 0 0 1 2.53-1.65c.62-.2 1.26-.32 1.93-.32a5.95 5.95 0 0 1 2.35.48c.28-.47.6-.88 1-1.22a4.64 4.64 0 0 1 1.17-.79 6.64 6.64 0 0 1 1.18-.41 4.88 4.88 0 0 1 1.12-.13 5.07 5.07 0 0 1 1.23.16l.82.25c.14.06.18.13.14.22l-.14.6a3.92 3.92 0 0 0-.1.86 3.19 3.19 0 0 0 .15.95c.1.32.24.63.44.94.2.3.46.58.8.83a3.75 3.75 0 0 0 1.15.57l.62.22c.1.03.15.08.15.16 0 .02-.01.04-.02.07l-.18.67c-.27 1.08-.78 1.93-1.5 2.57.4.7.62 1.45.65 2.24.01.05.01.12.01.23 0 .9-.22 1.72-.67 2.48-.44.76-1.05 1.36-1.8 1.8a4.88 4.88 0 0 1-2.48.67H9.07c-.9 0-1.72-.22-2.48-.67a4.98 4.98 0 0 1-1.79-1.8 4.82 4.82 0 0 1-.66-2.48zm1.7 0a3.18 3.18 0 0 0 .96 2.31c.64.65 1.4.98 2.26.98h10.8c.9 0 1.65-.32 2.28-.97s.95-1.42.95-2.32c0-.88-.32-1.63-.96-2.26s-1.4-.95-2.28-.95H18.1l-.1-.75c-.1-1-.52-1.88-1.26-2.6s-1.62-1.1-2.63-1.2c-.03 0-.08 0-.15-.01s-.1-.01-.15-.01a4.46 4.46 0 0 0-1.54.29V9.4c-.73.28-1.35.74-1.84 1.37a4.24 4.24 0 0 0-.9 2.17l-.07.72-.68.03a3.28 3.28 0 0 0-2.1 1.06c-.56.6-.82 1.32-.82 2.15zM17.6 8.8c1.06.9 1.72 1.97 1.97 3.18h.32c1.24 0 2.3.4 3.17 1.18.33-.3.58-.67.76-1.07a4.95 4.95 0 0 1-2.16-1.97c-.52-.88-.8-1.8-.8-2.78V7.1c-.05-.01-.13-.01-.24-.01-.58-.01-1.15.13-1.7.44a3.45 3.45 0 0 0-1.33 1.27z"/></svg>