<svg xmlns="http://www.w3.org/2000/svg" viewBox="0 0 30 30" fill="white"><path d="M4.6 16.88c0-1.15.36-2.17 1.08-3.07a4.76 4.76 0 0 1 2.74-1.73c.3-1.37 1.02-2.5 2.1-3.37S12.9 7.4 14.3 7.4a5.81 5.81 0 0 1 3.69 1.28c1.08.85 1.78 1.95 2.1 3.3h.33c.9 0 1.73.22 2.5.65s1.37 1.03 1.8 1.8.67 1.58.67 2.48a4.94 4.94 0 0 1-.63 2.45c-.42.75-1 1.35-1.73 1.8s-1.54.7-2.4.72H9.4a4.87 4.87 0 0 1-3.4-1.53c-.93-.95-1.4-2.1-1.4-3.44zm1.7 0a3.19 3.19 0 0 0 .9 2.26 3.15 3.15 0 0 0 2.19 1.03h11.2c.86-.04 1.6-.4 2.2-1.03.6-.64.9-1.4.9-2.26 0-.88-.33-1.63-.98-2.27s-1.42-.96-2.32-.96h-1.6c-.1 0-.17-.06-.17-.18l-.07-.57c-.1-1.08-.58-2-1.4-2.72s-1.77-1.1-2.86-1.1-2.05.37-2.85 1.1c-.8.73-1.27 1.64-1.37 2.72l-.08.57c0 .12-.07.18-.2.18h-.53a3.29 3.29 0 0 0-2.1 1.07c-.56.6-.85 1.33-.85 2.16z"/></svg>