<svg xmlns="http://www.w3.org/2000/svg" viewBox="0 0 30 30" fill="white"><path d="M1.56 16.88c0 1.33.46 2.47 1.4 3.43a4.91 4.91 0 0 0 3.4 1.53c.1 0 .17-.06.17-.17v-1.34c0-.12-.06-.18-.17-.18-.85-.04-1.57-.38-2.17-1.02s-.9-1.4-.9-2.25c0-.84.28-1.56.84-2.17a3.28 3.28 0 0 1 2.1-1.06l.5-.04c.13 0 .2-.06.2-.18L7 12.9a4.05 4.05 0 0 1 1.37-2.71 4.12 4.12 0 0 1 2.86-1.09 4.14 4.14 0 0 1 2.86 1.09 4.03 4.03 0 0 1 1.37 2.71l.07.57c0 .12.06.18.18.18h1.67c.88 0 1.63.32 2.27.96s.96 1.4.96 2.27c0 .85-.3 1.6-.9 2.22s-1.32.98-2.16 1.05c-.1 0-.17.06-.17.18v1.34c0 .1.06.17.17.17a4.59 4.59 0 0 0 2.4-.72 4.84 4.84 0 0 0 1.71-1.8c.42-.75.62-1.56.62-2.44 0-.7-.14-1.37-.4-1.96.76-.94 1.13-2.03 1.13-3.28a5.27 5.27 0 0 0-.41-2.04 5.11 5.11 0 0 0-1.12-1.67 5.04 5.04 0 0 0-1.66-1.11c-.65-.28-1.33-.4-2.04-.4-1.5 0-2.78.55-3.8 1.66-.8-.43-1.7-.64-2.73-.64-1.4 0-2.66.44-3.75 1.3s-1.77 2-2.07 3.35c-1.12.26-2.05.83-2.77 1.72a4.8 4.8 0 0 0-1.07 3.07zm5.4 6.7c0 .18.05.36.16.53a.84.84 0 0 0 .45.36c.2.07.4.05.6-.06.22-.1.36-.3.44-.55l.25-1.05a.72.72 0 0 0-.07-.62.88.88 0 0 0-.51-.42.9.9 0 0 0-.67.08c-.2.1-.32.3-.37.53l-.28 1-.01.2zm1.3-4.72c0 .38.2.64.64.8.22.08.43.06.64-.05s.34-.3.4-.53l.24-1.03a.72.72 0 0 0-.07-.62c-.1-.2-.28-.35-.5-.42-.24-.06-.47-.04-.67.08s-.32.3-.37.52l-.3 1.02-.01.24zm1.22 7.9c0 .16.06.33.17.5s.28.3.5.36c.01 0 .04 0 .1.01s.1.01.15.01c.14 0 .26-.02.37-.07.2-.08.33-.27.4-.58l.27-1c.07-.23.05-.45-.07-.65s-.3-.34-.5-.4c-.23-.07-.45-.05-.65.07s-.34.3-.4.5l-.28 1.02c-.04.1-.05.16-.05.2zm.46-22.07c0 .25.08.46.25.62l.66.65c.34.34.73.34 1.17 0a.87.87 0 0 0 .24-.61c0-.23-.08-.43-.24-.6l-.63-.66c-.16-.16-.36-.24-.6-.24-.23 0-.43.08-.6.25-.17.16-.25.36-.25.6zm.9 17.28c0 .17.05.34.16.5s.26.28.47.35a.83.83 0 0 0 .64-.05c.2-.1.33-.3.4-.56l.24-1c.07-.23.05-.45-.06-.65a.85.85 0 0 0-.5-.41c-.25-.07-.48-.04-.68.08s-.33.3-.37.53l-.28 1.03c-.02.03-.02.1-.02.18zm2.78 1.72c.02.38.23.65.63.83l.25.04c.16 0 .32-.05.47-.16s.26-.27.32-.5l.3-1a.84.84 0 0 0-.09-.66c-.12-.2-.3-.33-.53-.37a.72.72 0 0 0-.62.07c-.2.12-.34.3-.4.5l-.27 1.02c-.01.02-.01.05-.02.08s-.01.06-.02.08 0 .05 0 .07zm1.4-4.76a.9.9 0 0 0 .15.48c.1.16.25.27.45.32l.25.03a.82.82 0 0 0 .52-.18.79.79 0 0 0 .28-.47l.27-1c.07-.24.05-.45-.07-.65a.78.78 0 0 0-.51-.39c-.23-.07-.45-.05-.64.06-.2.1-.33.28-.4.5l-.3 1.06-.01.23zm.33-9.86c.66-.64 1.46-.96 2.4-.96.98 0 1.82.35 2.5 1.04s1.04 1.53 1.04 2.5c0 .56-.16 1.15-.47 1.76-.96-.96-2.1-1.43-3.47-1.43h-.34c-.26-1.14-.82-2.1-1.67-2.92zm1.54-5.23a.82.82 0 0 0 .85.85.82.82 0 0 0 .85-.85V1.8c0-.25-.08-.46-.24-.62a.82.82 0 0 0-.61-.24.82.82 0 0 0-.61.24c-.16.16-.24.37-.24.62v2.02zm5.55 2.3c0 .25.08.45.23.6.2.17.4.25.62.25.2 0 .38-.08.6-.25l1.43-1.43a.92.92 0 0 0 .24-.63c0-.24-.08-.44-.24-.6s-.36-.24-.6-.24-.43.08-.6.24L22.68 5.5c-.15.18-.23.38-.23.62zm.8 11.83c0 .23.1.44.26.63l.62.64c.2.2.4.3.62.3.2 0 .4-.1.58-.3.18-.18.27-.4.26-.6-.01-.23-.1-.43-.26-.6l-.65-.66a.78.78 0 0 0-.57-.24.82.82 0 0 0-.61.25c-.16.16-.25.36-.25.6zm1.47-6.3a.8.8 0 0 0 .82.82h2.04c.26 0 .47-.08.63-.23a.79.79 0 0 0 .24-.59c0-.25-.08-.46-.25-.62a.86.86 0 0 0-.62-.24h-2.04a.78.78 0 0 0-.59.25c-.15.17-.23.38-.23.6z"/></svg>