<svg xmlns="http://www.w3.org/2000/svg" viewBox="0 0 30 30" fill="white"><path d="M4.07 16.9a4.73 4.73 0 0 0 1.39 3.43 4.91 4.91 0 0 0 3.4 1.53c.1 0 .17-.06.17-.17v-1.37c0-.12-.06-.18-.17-.18-.87-.07-1.6-.4-2.2-1.04-.6-.62-.9-1.36-.9-2.2 0-.83.28-1.54.84-2.16s1.26-.97 2.1-1.07l.53-.07c.13 0 .2-.06.2-.17l.07-.52a4.05 4.05 0 0 1 1.37-2.71c.8-.73 1.76-1.1 2.85-1.1s2.04.36 2.85 1.1c.8.72 1.28 1.63 1.4 2.72l.08.58c0 .12.06.18.18.18h1.6c.9 0 1.67.32 2.32.95a3.09 3.09 0 0 1 .97 2.28c0 .85-.3 1.6-.9 2.2a3.31 3.31 0 0 1-2.19 1.04c-.13 0-.2.06-.2.18v1.37c0 .1.07.17.2.17a4.72 4.72 0 0 0 3.38-1.51c.92-.96 1.38-2.1 1.38-3.45a4.81 4.81 0 0 0-.65-2.43c.8-.73 1.34-1.6 1.58-2.62v-.13l.2-.8-.76-.2c-.8-.24-1.44-.7-1.9-1.35-.45-.66-.67-1.34-.67-2.03a4.13 4.13 0 0 1 .08-.78l.2-.8-.85-.25-.15-.04a6.72 6.72 0 0 0-1.25-.14c-.38 0-.76.04-1.14.13a6.09 6.09 0 0 0-1.2.41 4.49 4.49 0 0 0-1.2.8 5.49 5.49 0 0 0-1 1.23c-.74-.33-1.53-.5-2.36-.5-1.4 0-2.66.44-3.75 1.3s-1.77 2-2.07 3.36c-1.12.26-2.05.83-2.77 1.72a4.8 4.8 0 0 0-1.09 3.09zm5.4 6.77c0 .15.05.3.15.45a.86.86 0 0 0 .45.33c.22.07.43.06.64-.05s.34-.28.4-.5l.28-1.06a.72.72 0 0 0-.07-.62c-.12-.2-.3-.34-.5-.4a.86.86 0 0 0-.65.08c-.2.1-.34.3-.42.53l-.23 1-.05.27zm1.3-4.73c0 .1.03.23.1.36.07.17.25.3.53.38.24.06.46.04.66-.06.2-.1.33-.28.4-.52l.28-1.03a.75.75 0 0 0-.07-.64.83.83 0 0 0-.51-.39c-.24-.06-.47-.04-.67.07a.82.82 0 0 0-.4.52l-.27 1c-.03.13-.05.23-.05.3zm1.25 7.85c0 .17.05.33.15.5s.25.27.45.33c.1.03.18.05.23.05.1 0 .2-.03.38-.1.2-.08.34-.27.43-.55l.3-1.05c.07-.2.05-.42-.07-.63s-.3-.34-.5-.4c-.24-.06-.47-.04-.67.08a.88.88 0 0 0-.41.53l-.25 1a1.07 1.07 0 0 0-.03.25zm1.33-4.77c0 .15.05.3.15.45s.25.26.46.33c.22.07.44.05.64-.06a.82.82 0 0 0 .4-.52l.27-1.04a.75.75 0 0 0-.06-.62.83.83 0 0 0-.49-.41.94.94 0 0 0-.68.08c-.2.1-.35.3-.42.53l-.24 1-.03.26zm2.8 1.76c0 .38.2.62.64.75a1.12 1.12 0 0 0 .24.03c.15 0 .27-.02.37-.07.2-.08.36-.27.44-.57l.27-1.02c.06-.25.04-.47-.08-.67a.76.76 0 0 0-.53-.37.75.75 0 0 0-.64.07c-.2.12-.33.3-.4.5l-.27 1.04c0 .02-.01.07-.02.15-.02.07-.02.12-.02.15zm1.4-4.8c0 .16.05.3.15.46s.26.26.46.32l.23.05c.1 0 .2-.03.38-.1.2-.08.35-.27.44-.55l.28-1.04c.06-.22.03-.43-.08-.63s-.3-.33-.53-.4c-.22-.07-.43-.05-.63.07s-.33.3-.4.52l-.26 1.06c-.03.1-.04.18-.04.24zm.03-10.17a3.35 3.35 0 0 1 1.33-1.31 3.73 3.73 0 0 1 1.81-.47h.2c-.01.1-.01.2-.01.38 0 .95.26 1.85.78 2.7s1.25 1.5 2.17 1.96c-.22.43-.48.8-.78 1.1a4.8 4.8 0 0 0-3.25-1.21h-.32c-.25-1.2-.9-2.24-1.94-3.16z"/></svg>