<svg xmlns="http://www.w3.org/2000/svg" viewBox="0 0 30 30" fill="white"><path d="M1.5 16.88c0 1.12.33 2.12 1 3s1.53 1.47 2.58 1.76l-.66 1.7c-.05.14 0 .22.14.22h2.13l-1.43 4.2h.3L9.9 22.1c.04-.04.04-.1.02-.14s-.07-.07-.14-.07H7.6l2.5-4.65c.07-.14.03-.22-.14-.22H6.98c-.1 0-.17.05-.23.15l-1.07 2.88A3.14 3.14 0 0 1 3.9 18.9a3.14 3.14 0 0 1-.7-2.02c0-.84.28-1.57.84-2.18s1.27-.97 2.1-1.07l.5-.03c.12 0 .2-.05.22-.14l.07-.6c.1-1.08.56-2 1.37-2.72a4.13 4.13 0 0 1 2.86-1.1c1.1 0 2.04.37 2.86 1.1s1.3 1.64 1.4 2.72l.08.6c0 .1.06.17.18.17h1.6a3.18 3.18 0 0 1 2.31.96 3.09 3.09 0 0 1 .97 2.29 3.19 3.19 0 0 1-.9 2.26c-.6.64-1.32.98-2.18 1.03-.13 0-.2.06-.2.18v1.34c0 .1.07.17.2.17a4.66 4.66 0 0 0 2.42-.72c.73-.45 1.3-1.06 1.74-1.8s.64-1.57.64-2.45c0-.73-.14-1.4-.43-2.02a5.16 5.16 0 0 0 1.14-3.29c0-.95-.24-1.83-.7-2.64a5.2 5.2 0 0 0-1.92-1.92c-.8-.47-1.7-.7-2.64-.7a5.15 5.15 0 0 0-2.1.45A5.38 5.38 0 0 0 13.89 8c-.8-.43-1.7-.65-2.72-.65-1.42 0-2.68.44-3.77 1.32s-1.8 2-2.1 3.37c-1.1.26-2.02.84-2.74 1.74-.7.92-1.07 1.95-1.07 3.1zm8.18 9.92a.83.83 0 0 0 .16.47.89.89 0 0 0 .46.34c.1.03.2.04.25.04.15 0 .28-.03.38-.08.2-.08.36-.27.43-.57l.27-1.03a.9.9 0 0 0-.08-.67c-.1-.2-.3-.32-.53-.37-.2-.07-.4-.04-.62.07a.87.87 0 0 0-.42.52l-.25 1.04-.05.24zM9.9 4.6c0 .23.08.43.25.6l.65.66a.86.86 0 0 0 .55.26c.2.03.4-.04.6-.23.2-.18.3-.4.3-.64 0-.23-.08-.43-.25-.6l-.63-.66c-.16-.16-.36-.24-.6-.24-.25 0-.46.08-.63.24-.16.18-.25.38-.25.6zM11 22a.76.76 0 0 0 .14.47c.1.15.26.26.48.32a.75.75 0 0 0 .62-.06c.2-.1.34-.3.42-.56l.3-1.03a.74.74 0 0 0-.08-.63c-.12-.2-.3-.34-.54-.4-.23-.07-.44-.05-.64.07a.88.88 0 0 0-.41.53l-.24 1.05L11 22zm2.83 1.68c0 .14.03.28.1.4.13.2.3.36.54.43.1.04.2.06.28.06.13 0 .23-.02.3-.08.2-.07.35-.27.45-.6l.25-1c.07-.24.05-.45-.07-.65a.78.78 0 0 0-.51-.39c-.23-.07-.45-.05-.65.07a.84.84 0 0 0-.41.51l-.28 1.04-.01.23zm1.37-4.82a.85.85 0 0 0 .16.5.83.83 0 0 0 .49.33c.17.06.37.04.6-.05.2-.1.34-.28.43-.57l.27-1c.06-.25.04-.47-.08-.67a.76.76 0 0 0-.53-.37.79.79 0 0 0-.64.06c-.2.1-.33.28-.4.5l-.3 1.06-.02.2zm.1-9.84a3.41 3.41 0 0 1 2.45-.97c.98 0 1.82.34 2.5 1.03.7.68 1.04 1.52 1.04 2.5 0 .66-.16 1.26-.47 1.8a4.78 4.78 0 0 0-3.52-1.44H17c-.3-1.2-.86-2.17-1.7-2.93zm1.6-5.27a.82.82 0 0 0 .25.61c.17.17.37.25.6.25.24 0 .44-.08.6-.25s.24-.37.24-.6V1.7c0-.24-.08-.45-.24-.6-.16-.17-.36-.26-.6-.26s-.44.08-.6.25-.25.37-.25.6v2.07zm5.58 2.3c0 .24.08.44.23.6.14.16.32.24.55.26s.44-.07.63-.26l1.44-1.44a.76.76 0 0 0 .26-.6c0-.24-.1-.44-.26-.6a.76.76 0 0 0-.6-.26c-.23 0-.42.1-.58.26l-1.44 1.44c-.16.15-.23.35-.23.6zm.77 11.9c0 .23.08.43.25.6l.65.63c.18.17.4.25.62.25l.02.02c.22 0 .4-.1.54-.27a.76.76 0 0 0 .26-.6c0-.23-.1-.43-.26-.6l-.62-.62c-.18-.18-.38-.27-.6-.27-.24 0-.44.1-.6.26a.88.88 0 0 0-.25.61zm1.47-6.37c0 .24.1.44.26.6a.76.76 0 0 0 .6.26h2.06a.82.82 0 0 0 .61-.25c.17-.17.25-.37.25-.6a.8.8 0 0 0-.25-.6c-.17-.16-.37-.24-.6-.24H25.6c-.24 0-.45.08-.6.24-.17.16-.25.36-.25.6z"/></svg>