<svg xmlns="http://www.w3.org/2000/svg" viewBox="0 0 30 30" fill="white"><path d="M4.1 16.9c0 1.1.33 2.1 1 2.97a4.96 4.96 0 0 0 2.58 1.79L7 23.35c-.04.14 0 .2.14.2h2.12l-1.3 4.18h.28l4.23-5.62c.04-.04.04-.1.02-.14-.03-.05-.07-.07-.14-.07H10.2l2.47-4.64c.07-.14.03-.22-.13-.22H9.57c-.1 0-.16.05-.22.15l-1.07 2.88c-.7-.18-1.3-.57-1.78-1.17s-.7-1.27-.7-2c0-.83.28-1.55.85-2.17a3.34 3.34 0 0 1 2.1-1.07l.53-.07c.13 0 .2-.06.2-.18l.07-.5c.1-1.08.56-2 1.37-2.72s1.76-1.1 2.85-1.1 2.04.37 2.86 1.1a4.13 4.13 0 0 1 1.4 2.71l.07.57c0 .12.06.2.17.2h1.62c.9 0 1.68.32 2.33.95a3.07 3.07 0 0 1 .97 2.28c0 .85-.3 1.6-.9 2.2a3.28 3.28 0 0 1-2.2 1.03c-.12 0-.2.06-.2.2v1.36c0 .12.06.18.2.18 1.33-.04 2.46-.55 3.4-1.5a4.81 4.81 0 0 0 1.39-3.45c0-.87-.22-1.68-.66-2.45.76-.74 1.27-1.6 1.5-2.62l.2-.68c.01-.01.01-.03.01-.07 0-.08-.05-.13-.15-.16l-.62-.17c-.57-.17-1.06-.45-1.46-.84s-.68-.8-.85-1.22-.25-.84-.24-1.26c0-.28.03-.56.1-.85l.1-.6c.02-.1-.02-.18-.14-.23l-.8-.24c-.47-.1-.88-.14-1.24-.14-.37-.01-.75.03-1.13.12-.38.08-.78.22-1.2.4s-.8.45-1.18.8-.7.74-1 1.2c-.83-.3-1.62-.46-2.36-.46-1.4 0-2.67.44-3.76 1.32a5.9 5.9 0 0 0-2.11 3.36c-1.1.26-2.02.84-2.74 1.74a4.8 4.8 0 0 0-1.07 3.07zm8.17 9.87c0 .16.05.3.15.47s.25.27.45.33l.27.05c.1 0 .22-.03.37-.1.2-.1.35-.27.42-.53l.28-1.05c.06-.22.04-.43-.08-.63a.88.88 0 0 0-.53-.41c-.22-.06-.43-.03-.63.08a.91.91 0 0 0-.41.53l-.27 1-.02.26zM13.6 22c0 .43.2.68.6.75l.27.05c.38 0 .63-.2.77-.63l.3-1.02c.06-.22.03-.43-.08-.63s-.3-.34-.53-.4a.76.76 0 0 0-.64.07.88.88 0 0 0-.41.53l-.25 1c-.03.1-.04.18-.04.28zm2.8 1.67a.89.89 0 0 0 .18.48c.1.15.27.27.48.34.16.04.27.06.33.06.34 0 .58-.23.7-.68l.24-1.02a.84.84 0 0 0-.06-.66c-.1-.2-.28-.34-.5-.4-.25-.06-.48-.03-.68.08-.2.12-.33.3-.37.53l-.3 1.03c0 .02-.01.06-.02.12-.02.07-.02.1-.02.13zm1.18-14.9a3.39 3.39 0 0 1 1.34-1.29c.56-.3 1.15-.45 1.76-.45h.22v.32a5.15 5.15 0 0 0 .34 1.86 5.25 5.25 0 0 0 1.02 1.66c.45.5 1 .9 1.6 1.2-.17.38-.42.72-.76 1.03-.9-.78-1.98-1.17-3.22-1.17h-.33c-.3-1.26-.95-2.32-1.98-3.17zm.2 10.1c0 .43.22.7.65.82l.3.04c.36 0 .6-.22.74-.65l.28-1.04c.01-.05.01-.12.01-.22.01-.17-.03-.33-.14-.5a.83.83 0 0 0-.49-.33c-.01 0-.05 0-.1-.01s-.1-.01-.13-.01a.9.9 0 0 0-.48.15c-.16.1-.27.26-.33.47l-.3 1.02c0 .01 0 .04-.01.1 0 .07-.01.12-.01.15z"/></svg>