<svg xmlns="http://www.w3.org/2000/svg" viewBox="0 0 30 30" fill="white"><path d="M1.5 16.92a4.79 4.79 0 0 1 1.08-3.09 4.86 4.86 0 0 1 2.74-1.74c.3-1.37 1-2.5 2.1-3.38 1.1-.88 2.35-1.32 3.77-1.32 1 0 1.9.22 2.72.66.5-.53 1.1-.95 1.76-1.25a5.07 5.07 0 0 1 2.09-.45c.95 0 1.83.24 2.64.7a5.2 5.2 0 0 1 1.92 1.92c.47.8.7 1.7.7 2.64a5.16 5.16 0 0 1-1.14 3.29c.3.6.43 1.28.43 2.02 0 .88-.2 1.7-.64 2.45-.42.75-1 1.36-1.74 1.8a4.66 4.66 0 0 1-2.42.72c-.13 0-.2-.06-.2-.18V20.4c0-.12.07-.18.2-.18.86-.04 1.58-.4 2.18-1.03s.9-1.4.9-2.26a3.09 3.09 0 0 0-.97-2.29c-.65-.64-1.4-.96-2.3-.96h-1.6c-.12 0-.18-.06-.18-.17l-.08-.6c-.1-1.08-.58-2-1.4-2.72s-1.78-1.1-2.86-1.1a4.13 4.13 0 0 0-2.86 1.1c-.8.73-1.27 1.64-1.37 2.72l-.07.6c-.03.1-.1.13-.22.13l-.5.04c-.84.1-1.55.45-2.1 1.06s-.84 1.34-.84 2.18v.05h.03a3.15 3.15 0 0 0 1.11 2.43c.22.2.47.36.74.5v.02c.4.2.82.3 1.2.3.1 0 .17.06.17.17v1.34c0 .1-.06.17-.17.17-.52-.03-1-.13-1.48-.3h0c-.83-.3-1.54-.77-2.1-1.43a4.84 4.84 0 0 1-1.11-2.31v-.04c-.01-.01-.01-.02-.01-.03-.07-.26-.1-.55-.1-.88zM7 24.1c0-.03.01-.07.02-.13.01-.05.02-.1.02-.12l.1-.6c.07-.24.2-.4.4-.53.2-.12.43-.14.68-.08.23.07.4.2.5.4.1.2.13.4.07.62l-.14.6c-.1.44-.35.66-.76.66-.03 0-.08 0-.15-.01s-.1-.01-.13-.01a.76.76 0 0 1-.46-.33.82.82 0 0 1-.16-.49zm.74-2.94c0-.24.08-.43.23-.6.16-.16.35-.23.6-.23s.43.08.6.23c.16.16.23.35.23.6 0 .23-.08.42-.23.58s-.35.23-.6.23c-.23 0-.42-.08-.57-.24a.75.75 0 0 1-.25-.57zm1.64 5.98c0-.04.01-.1.04-.23l.13-.58a.84.84 0 0 1 .41-.51c.2-.12.42-.14.63-.07.23.04.4.17.53.37s.15.43.08.68l-.13.6c-.1.4-.37.6-.8.6-.05 0-.13-.01-.24-.04a.83.83 0 0 1-.49-.33.84.84 0 0 1-.16-.49zm.53-22.5c0-.24.08-.44.25-.6s.38-.24.63-.24c.24 0 .44.08.6.24l.63.66c.17.17.25.37.25.6 0 .24-.1.46-.3.64s-.4.26-.6.23c-.2-.02-.4-.1-.55-.27l-.65-.66c-.16-.17-.25-.37-.25-.6zm.26 19.6a.8.8 0 0 1 .23-.58c.16-.16.35-.23.6-.23s.43.08.6.23c.16.16.23.35.23.58 0 .24-.08.43-.23.6-.16.16-.35.23-.6.23-.22 0-.4-.08-.58-.25a.78.78 0 0 1-.24-.57zm.62-2.27a1.09 1.09 0 0 1 .03-.26l.23-.9a.91.91 0 0 1 .41-.53c.2-.12.42-.15.64-.08.24.07.4.2.53.4s.14.4.07.62l-.26.9c-.08.27-.22.46-.4.57s-.4.12-.64.06c-.2-.04-.35-.14-.45-.3-.12-.18-.17-.33-.15-.48zm2.76 2.14c0-.03 0-.07.01-.13s.01-.1.01-.1l.1-.6c.07-.24.2-.4.4-.53.2-.12.43-.14.68-.08a.84.84 0 0 1 .51.41c.12.2.14.42.07.63l-.14.6c-.1.43-.35.65-.76.65-.03 0-.08 0-.15-.01s-.1-.01-.13-.01c-.2-.06-.35-.17-.45-.33-.1-.17-.15-.33-.15-.5zm.74-2.94c0-.24.08-.43.23-.6.16-.16.35-.23.6-.23s.43.08.6.23c.16.16.23.35.23.6a.8.8 0 0 1-.23.58c-.16.16-.35.23-.6.23-.23 0-.43-.08-.58-.25a.74.74 0 0 1-.24-.56zm1.03-12.1c.84.76 1.4 1.74 1.7 2.93h.3c1.38 0 2.55.48 3.52 1.45.3-.55.47-1.16.47-1.82 0-.98-.35-1.8-1.04-2.5-.7-.68-1.53-1.03-2.5-1.03-.96 0-1.78.32-2.45.97zm1.6-5.27V1.73a.82.82 0 0 1 .25-.61c.17-.17.37-.26.6-.26.24 0 .44.08.6.25s.24.38.24.62v2.05c0 .24-.08.45-.24.62s-.36.25-.6.25c-.23 0-.43-.1-.6-.26a.82.82 0 0 1-.25-.61zm5.58 2.3c0-.24.08-.44.23-.6l1.44-1.45c.15-.17.34-.25.58-.25s.44.08.6.25a.76.76 0 0 1 .26.6c0 .24-.1.44-.26.6L23.9 6.68a.81.81 0 0 1-.63.26c-.23-.02-.4-.1-.55-.26-.16-.16-.23-.36-.23-.6zm.77 11.9a.82.82 0 0 1 .25-.61c.17-.17.37-.25.6-.25s.43.1.6.26l.62.63a.81.81 0 0 1 .26.61c0 .24-.1.44-.26.6a.67.67 0 0 1-.54.26l-.02-.02c-.24 0-.44-.08-.62-.24l-.65-.64c-.16-.17-.25-.37-.25-.6zm1.47-6.37c0-.24.08-.44.25-.6s.37-.24.6-.24h2.06c.24 0 .45.08.6.24a.82.82 0 0 1 .25.6.82.82 0 0 1-.25.61.82.82 0 0 1-.61.25H25.6a.77.77 0 0 1-.6-.27c-.18-.15-.26-.35-.26-.6z"/></svg>