<svg xmlns="http://www.w3.org/2000/svg" viewBox="0 0 30 30" fill="white"><path d="M4.07 16.93c0 1.33.47 2.47 1.4 3.43s2.07 1.47 3.4 1.5c.12 0 .18-.06.18-.17v-1.34c0-.1-.06-.17-.18-.17-.85-.04-1.58-.4-2.18-1.03s-.9-1.4-.9-2.23c0-.85.28-1.6.85-2.2s1.27-.97 2.1-1.04l.53-.07c.13 0 .2-.06.2-.18l.07-.5c.1-1.1.56-2.02 1.37-2.75a4.13 4.13 0 0 1 2.86-1.1c1.1 0 2.04.37 2.86 1.1s1.3 1.64 1.4 2.72l.07.57c0 .12.06.2.17.2h1.62c.9 0 1.68.32 2.33.97a3.12 3.12 0 0 1 .97 2.31 3.19 3.19 0 0 1-.41 1.56 3.33 3.33 0 0 1-1.13 1.2 3.14 3.14 0 0 1-1.56.51c-.13 0-.2.06-.2.17v1.34c0 .1.07.17.2.17.88-.02 1.7-.26 2.42-.7s1.3-1.05 1.73-1.8a4.89 4.89 0 0 0 .63-2.43c0-.88-.23-1.72-.68-2.5.83-.74 1.36-1.62 1.58-2.62l.14-.68c.02-.02.03-.04.03-.07 0-.06-.06-.1-.17-.16l-.55-.18c-.57-.17-1.07-.45-1.47-.85-.4-.4-.7-.8-.87-1.25-.17-.43-.26-.86-.26-1.3-.02-.2.01-.5.1-.82l.13-.58c.04-.1 0-.18-.13-.23l-.8-.24a4.96 4.96 0 0 0-1.29-.17 4.88 4.88 0 0 0-1.12.13c-.38.1-.78.22-1.2.4s-.8.46-1.2.8a5.23 5.23 0 0 0-1 1.23c-.8-.3-1.6-.46-2.35-.46-1.4 0-2.67.44-3.76 1.32s-1.8 2-2.1 3.37c-1.12.3-2.04.88-2.75 1.77-.7.87-1.06 1.9-1.06 3.06zm5.4 7.05c0 .17.05.34.16.5a.88.88 0 0 0 .47.35.83.83 0 0 0 .64-.04c.2-.1.32-.28.4-.56l.14-.6c.05-.23.02-.44-.1-.63a.82.82 0 0 0-.52-.4c-.23-.07-.44-.04-.64.08a.86.86 0 0 0-.4.53l-.13.58c-.02.04-.02.1-.02.2zm.76-2.9c0 .2.08.4.25.57a.73.73 0 0 0 .56.25c.24 0 .44-.08.6-.24a.79.79 0 0 0 .24-.59c0-.23-.08-.43-.24-.6s-.36-.24-.6-.24a.8.8 0 0 0-.58.23c-.15.15-.23.38-.23.6zm.6-2.27c-.01.16.03.3.14.45.1.15.26.25.48.32a.8.8 0 0 0 .62-.07c.2-.1.34-.28.4-.5l.28-.9c.07-.24.05-.46-.07-.65s-.3-.32-.54-.4c-.22-.07-.43-.05-.63.07a.85.85 0 0 0-.41.5l-.24.92c0 .02-.01.06-.02.12-.02.05-.02.1-.02.14zM12 27.1c0 .18.05.34.15.5s.26.27.48.33a1.07 1.07 0 0 0 .25.03c.43 0 .7-.2.8-.6l.14-.6a.92.92 0 0 0-.08-.68c-.1-.2-.3-.32-.52-.37-.2-.07-.42-.05-.63.07s-.34.3-.4.5l-.14.6c-.02.1-.03.16-.03.22zm.78-2.9c0 .22.08.4.25.58a.78.78 0 0 0 .57.24c.24 0 .43-.08.6-.23.16-.16.23-.35.23-.6 0-.23-.08-.42-.23-.58s-.35-.23-.6-.23-.43.08-.6.23a.8.8 0 0 0-.23.58zm.63-2.27c-.01.15.03.3.13.47s.25.26.45.3a.88.88 0 0 0 .64-.06c.2-.1.33-.3.4-.56l.27-.9c.07-.22.05-.43-.07-.63s-.3-.33-.53-.4c-.22-.07-.43-.04-.64.08s-.34.3-.4.53l-.22.9c-.02.08-.03.17-.03.27zm2.75 2.15a.9.9 0 0 0 .15.48c.1.16.26.27.46.33.03 0 .08.01.14.02s.1.02.14.02c.4 0 .66-.22.76-.66l.14-.6c.07-.2.05-.42-.07-.63-.1-.2-.28-.34-.5-.4-.25-.06-.48-.04-.68.08a.88.88 0 0 0-.41.53l-.1.6c0 .02-.01.07-.02.12 0 .05-.01.1-.01.13zm.74-2.96c0 .22.08.42.25.57.15.16.34.24.57.24.24 0 .43-.08.6-.23s.23-.35.23-.58c0-.24-.08-.43-.23-.6s-.35-.23-.6-.23-.43.08-.6.23-.23.35-.23.6zm.6-2.3a.79.79 0 0 0 .16.48c.1.15.27.26.5.32.02 0 .06.01.12.02l.14.02c.1 0 .22-.03.36-.1.2-.1.35-.3.4-.52l.24-.9c.06-.23.04-.44-.08-.63-.1-.2-.28-.33-.5-.4a.79.79 0 0 0-.64.06c-.2.1-.32.27-.4.5l-.28.9c0 .02-.01.06-.02.12.01.03 0 .07 0 .1zm.07-10.05c.32-.58.76-1.02 1.3-1.34.56-.32 1.13-.47 1.73-.46a1.69 1.69 0 0 1 .3.03v.3c-.01.98.25 1.9.77 2.76.53.86 1.27 1.5 2.22 1.94-.2.4-.46.78-.8 1.1-.92-.76-2-1.14-3.23-1.14h-.3c-.3-1.3-.97-2.38-2-3.2z"/></svg>