<svg xmlns="http://www.w3.org/2000/svg" viewBox="0 0 30 30" fill="white"><path d="M1.58 16.93c0 .86.2 1.67.64 2.4.42.74 1 1.34 1.74 1.8a4.73 4.73 0 0 0 2.4.71c.1 0 .17-.06.17-.17v-1.33c0-.12-.06-.2-.17-.2-.85-.04-1.58-.38-2.18-1.02s-.9-1.37-.9-2.2c0-.82.28-1.54.85-2.16.57-.6 1.26-.97 2.1-1.07l.53-.06c.12 0 .18-.06.18-.2l.08-.5a4.13 4.13 0 0 1 1.36-2.73 4.08 4.08 0 0 1 2.85-1.09c1.1 0 2.04.36 2.85 1.1.82.73 1.28 1.63 1.38 2.7l.07.58c0 .1.06.17.17.17h1.6c.9 0 1.67.32 2.3.96a3.12 3.12 0 0 1 .96 2.29c0 .84-.3 1.57-.9 2.2-.6.63-1.33.97-2.17 1.02-.12 0-.2.06-.2.2v1.33c0 .1.06.17.2.17a4.73 4.73 0 0 0 3.38-1.5c.93-.96 1.4-2.1 1.4-3.4 0-.76-.14-1.43-.43-2.03A5.1 5.1 0 0 0 23 11.6c0-.94-.23-1.8-.7-2.6a5.3 5.3 0 0 0-1.91-1.91c-.8-.47-1.68-.7-2.62-.7-1.54 0-2.83.58-3.87 1.73-.8-.44-1.7-.66-2.7-.66a5.82 5.82 0 0 0-3.74 1.31 5.82 5.82 0 0 0-2.09 3.34 4.93 4.93 0 0 0-2.74 1.75c-.7.9-1.06 1.92-1.06 3.08zm6.34 4.05c0 .24.08.44.24.6s.35.25.6.25a.78.78 0 0 0 .59-.25c.16-.17.24-.37.24-.6 0-.23-.08-.42-.24-.58a.79.79 0 0 0-.59-.24c-.23 0-.43.08-.6.24a.8.8 0 0 0-.24.58zm0 3.63c0 .2.08.4.24.57.18.16.37.24.58.24.24 0 .43-.08.6-.23.16-.16.23-.35.23-.58a.79.79 0 0 0-.24-.59c-.16-.16-.35-.23-.6-.23a.84.84 0 0 0-.59.23c-.14.15-.22.35-.22.6zM9.97 4.68c0 .24.08.44.24.6l.66.66c.16.16.34.25.53.25.2.03.4-.04.6-.22s.3-.4.3-.63-.08-.46-.24-.64l-.64-.6c-.15-.17-.34-.25-.58-.25a.85.85 0 0 0-.63.25c-.17.16-.25.36-.25.6zM11.1 22.9c0 .22.08.42.24.6a.8.8 0 0 0 .58.24c.24 0 .44-.08.6-.24a.82.82 0 0 0 .25-.6c0-.23-.08-.43-.25-.6s-.37-.25-.6-.25-.42.08-.58.25-.24.37-.24.6zm0-3.6c0 .23.08.42.24.58a.8.8 0 0 0 .58.24c.24 0 .44-.08.6-.24.17-.16.25-.35.25-.6a.78.78 0 0 0-.25-.59c-.17-.16-.37-.24-.6-.24s-.42.08-.58.24a.83.83 0 0 0-.24.6zm0 7.26a.78.78 0 0 0 .24.57c.17.17.36.25.58.25.24 0 .44-.08.6-.23.17-.16.25-.35.25-.6s-.08-.44-.25-.6c-.17-.17-.37-.25-.6-.25-.22 0-.4.08-.58.25-.16.17-.24.37-.24.6zm3.22-5.58c0 .24.08.44.24.6a.78.78 0 0 0 .59.25.78.78 0 0 0 .59-.25c.16-.17.24-.37.24-.6 0-.23-.08-.42-.24-.58a.79.79 0 0 0-.59-.24.79.79 0 0 0-.59.24.8.8 0 0 0-.24.58zm0 3.63c0 .2.08.4.23.57.18.16.38.24.6.24.24 0 .43-.08.6-.23.16-.16.23-.35.23-.58a.79.79 0 0 0-.24-.59c-.16-.16-.35-.23-.6-.23s-.44.08-.6.24c-.14.15-.22.35-.22.58zm.98-15.55a3.44 3.44 0 0 1 2.47-.99 3.36 3.36 0 0 1 2.48 1.04c.7.7 1.03 1.53 1.03 2.5 0 .62-.17 1.24-.5 1.84A4.7 4.7 0 0 0 17.3 12h-.32c-.3-1.17-.86-2.15-1.68-2.94zm1.6-5.22c0 .23.08.43.25.58a.89.89 0 0 0 .61.23c.24 0 .43-.08.6-.23.16-.16.23-.35.23-.58V1.8c0-.24-.08-.44-.24-.6S18 .94 17.77.94s-.43.1-.6.26-.26.37-.26.6v2.04zm5.52 2.27a.78.78 0 0 0 .25.59.84.84 0 0 0 .56.26c.22.02.43-.07.62-.26l1.43-1.43c.18-.18.26-.38.26-.6a.83.83 0 0 0-.26-.61c-.17-.17-.37-.25-.6-.25-.22 0-.4.08-.58.25L22.67 5.5c-.17.16-.25.36-.25.6zm.8 11.8c0 .25.08.46.24.62l.64.63c.24.16.46.24.64.24.2 0 .4-.1.56-.26a.84.84 0 0 0 .25-.61c0-.23-.1-.42-.26-.58l-.62-.65c-.18-.16-.38-.24-.6-.24a.78.78 0 0 0-.59.25c-.17.16-.25.36-.25.6zm1.45-6.3c0 .24.1.43.26.6.17.18.38.27.62.27h2.02c.23 0 .43-.08.6-.25a.82.82 0 0 0 .25-.61c0-.24-.08-.44-.25-.6s-.37-.25-.6-.25h-2.02a.86.86 0 0 0-.62.25.79.79 0 0 0-.26.6z"/></svg>