<svg xmlns="http://www.w3.org/2000/svg" viewBox="0 0 30 30" fill="white"><path d="M4.07 16.93c0 1.33.47 2.47 1.4 3.43s2.07 1.47 3.4 1.5c.12 0 .18-.06.18-.17v-1.34c0-.1-.06-.17-.18-.17-.85-.04-1.58-.4-2.18-1.03-.6-.64-.9-1.4-.9-2.24a3.13 3.13 0 0 1 .85-2.2 3.11 3.11 0 0 1 2.1-1.03l.53-.07c.13 0 .2-.06.2-.17l.07-.52c.1-1.1.56-2 1.37-2.75s1.76-1.1 2.86-1.1c1.1 0 2.04.37 2.86 1.1a4.13 4.13 0 0 1 1.4 2.72l.08.57c0 .12.06.18.17.18h1.62c.9 0 1.68.32 2.33.97a3.12 3.12 0 0 1 .97 2.31c0 .85-.3 1.6-.9 2.24s-1.33.98-2.18 1.03c-.14 0-.2.06-.2.17v1.34c0 .1.07.17.2.17a4.71 4.71 0 0 0 2.41-.71c.73-.45 1.3-1.05 1.73-1.8a4.89 4.89 0 0 0 .63-2.43c0-.9-.22-1.74-.65-2.48.74-.66 1.24-1.52 1.52-2.58l.17-.72c.01-.01.02-.04.02-.08 0-.07-.05-.13-.16-.16l-.6-.17a3.75 3.75 0 0 1-1.17-.57 3.21 3.21 0 0 1-.81-.84c-.2-.3-.34-.62-.44-.95a3.19 3.19 0 0 1-.15-.95 3.79 3.79 0 0 1 .1-.86l.1-.62c.02-.1-.02-.17-.14-.22l-.8-.24c-.44-.1-.85-.16-1.25-.16a4.82 4.82 0 0 0-1.12.13c-.38.1-.77.22-1.18.4a4.56 4.56 0 0 0-1.18.8c-.38.35-.7.75-1 1.22-.8-.33-1.6-.5-2.38-.5-1.4 0-2.67.44-3.76 1.32s-1.8 2-2.1 3.37c-1.12.28-2.04.87-2.75 1.76-.7.9-1.07 1.93-1.07 3.1zm6.4 4.1c0 .24.08.44.24.6.16.17.35.25.6.25s.44-.08.6-.25.24-.37.24-.6a.8.8 0 0 0-.24-.58c-.16-.16-.36-.24-.6-.24-.23 0-.43.08-.6.24s-.24.35-.24.58zm0 3.64c0 .23.08.42.24.58a.8.8 0 0 0 .58.24c.24 0 .44-.08.6-.23a.79.79 0 0 0 .24-.59.79.79 0 0 0-.24-.59c-.16-.16-.36-.23-.6-.23s-.43.08-.6.23c-.15.15-.23.35-.23.6zm3.2-1.7c0 .24.08.44.24.6a.8.8 0 0 0 .58.24c.24 0 .44-.08.6-.24a.78.78 0 0 0 .25-.59.82.82 0 0 0-.25-.61.83.83 0 0 0-.61-.26c-.22 0-.4.1-.58.26s-.24.37-.24.6zm0-3.64c0 .24.08.43.24.58a.8.8 0 0 0 .58.24.87.87 0 0 0 .61-.23c.16-.15.25-.35.25-.6 0-.23-.08-.43-.25-.6a.82.82 0 0 0-.61-.25c-.22 0-.42.08-.58.25s-.24.37-.24.6zm0 7.3a.78.78 0 0 0 .24.57c.17.17.36.25.58.25.24 0 .44-.08.6-.24s.25-.35.25-.6a.82.82 0 0 0-.25-.61.83.83 0 0 0-.61-.26c-.22 0-.4.1-.58.26-.15.18-.24.4-.24.62zm3.24-5.6c0 .24.08.44.25.6s.36.25.6.25.43-.08.6-.25.24-.37.24-.6a.8.8 0 0 0-.24-.58.79.79 0 0 0-.59-.24.83.83 0 0 0-.6.24c-.17.16-.25.35-.25.58zm0 3.64c0 .23.08.42.24.58s.36.24.6.24a.79.79 0 0 0 .59-.24c.16-.16.23-.35.23-.6s-.08-.43-.23-.6c-.16-.16-.35-.23-.6-.23s-.44.08-.6.23c-.16.16-.24.36-.24.6zm.68-15.9c.3-.54.75-.96 1.3-1.26s1.12-.45 1.7-.46a2.38 2.38 0 0 1 .33.02v.3a5.2 5.2 0 0 0 .78 2.74c.52.86 1.25 1.5 2.17 1.96-.16.36-.4.72-.76 1.07-.9-.8-1.96-1.18-3.23-1.18h-.3c-.27-1.23-.93-2.3-2-3.2z"/></svg>