<svg xmlns="http://www.w3.org/2000/svg" viewBox="0 0 30 30" fill="white"><path d="M4.6 16.93c0-1.16.36-2.18 1.1-3.08.72-.9 1.65-1.48 2.78-1.73a5.78 5.78 0 0 1 2.07-3.39c1.1-.9 2.34-1.33 3.76-1.33a5.89 5.89 0 0 1 3.72 1.28c1.08.85 1.8 1.95 2.12 3.3h.34a4.82 4.82 0 0 1 2.48.66 4.83 4.83 0 0 1 1.79 1.8c.43.76.65 1.6.65 2.5 0 1.34-.46 2.48-1.37 3.44a4.69 4.69 0 0 1-3.37 1.5c-.12 0-.18-.06-.18-.17v-1.34c0-.1.06-.17.18-.17.84-.07 1.57-.42 2.17-1.05s.9-1.37.9-2.22a3.18 3.18 0 0 0-.96-2.31c-.64-.64-1.4-.97-2.3-.97h-1.63c-.12 0-.2-.06-.22-.18l-.07-.57c-.07-.7-.3-1.36-.7-1.94s-.9-1.03-1.53-1.36-1.3-.5-2.02-.5a4.12 4.12 0 0 0-2.86 1.09c-.8.73-1.27 1.64-1.37 2.72l-.07.54c0 .1-.05.14-.16.14l-.54.1c-.84.07-1.55.4-2.1 1.03a3.13 3.13 0 0 0-.85 2.2 3.18 3.18 0 0 0 .89 2.25c.6.63 1.3.97 2.17 1.02.12 0 .18.06.18.17v1.34c0 .1-.06.17-.18.17a5.08 5.08 0 0 1-1.88-.45c-.6-.27-1.1-.63-1.53-1.07a4.86 4.86 0 0 1-1.02-1.55 4.82 4.82 0 0 1-.38-1.88zm5.42 6.77c0-.03.01-.08.02-.13l.02-.1.27-1.03c.07-.22.2-.4.4-.5.2-.12.4-.14.64-.07s.4.2.52.4.14.4.07.64l-.24 1c-.13.44-.38.66-.76.66h-.1c-.03 0-.07-.01-.1-.01-.04-.01-.07-.01-.1-.01-.2-.06-.37-.18-.48-.34s-.16-.34-.16-.5zm1.32-4.82c0-.02 0-.06.01-.1s.01-.08.01-.1l.3-1.05a.87.87 0 0 1 .32-.45c.15-.1.3-.15.47-.15h.08c.03 0 .06.01.1.01.03.01.06.01.08.01.23.07.4.2.5.4.12.2.14.4.07.64l-.24 1c-.07.28-.2.47-.4.6s-.42.12-.65.02c-.22-.06-.38-.17-.5-.34s-.16-.32-.16-.48zm1.23 7.95c0-.03.01-.07.02-.13s.02-.1.02-.12l.3-1a.85.85 0 0 1 .4-.54.78.78 0 0 1 .65-.08c.23.07.4.2.5.4a.82.82 0 0 1 .07.65l-.25 1.04c-.1.4-.37.6-.8.6-.05 0-.13-.01-.24-.04-.22-.04-.38-.14-.5-.3-.12-.16-.18-.33-.18-.5zm1.34-4.77c0-.06.01-.14.04-.25l.27-1.03c.07-.23.2-.4.4-.5.2-.12.42-.14.65-.07.23.06.4.2.5.4a.81.81 0 0 1 .06.65l-.24 1c-.13.45-.37.68-.72.68-.04 0-.15-.02-.3-.06-.22-.04-.38-.14-.5-.3a.78.78 0 0 1-.18-.49zm2.82 1.68a1.12 1.12 0 0 1 .03-.24l.28-1c.07-.24.2-.42.4-.54s.4-.15.63-.1c.23.07.4.2.53.4a.78.78 0 0 1 .09.63l-.3 1.06c-.1.4-.36.6-.8.6a1.09 1.09 0 0 1-.26-.03.7.7 0 0 1-.46-.3c-.1-.18-.16-.35-.17-.52zm1.38-4.76c0-.03.02-.12.05-.26l.3-1.03c.04-.2.13-.37.3-.47s.32-.15.5-.14c.04-.01.13 0 .24.03.22.05.4.18.52.38.12.17.14.38.07.65l-.24 1.03c-.13.43-.38.65-.76.65-.06 0-.17-.02-.34-.06-.2-.06-.36-.17-.46-.3-.1-.16-.16-.3-.16-.47z"/></svg>