<svg xmlns="http://www.w3.org/2000/svg" viewBox="0 0 30 30" fill="white"><path d="M4.64 16.9c0-1.15.36-2.17 1.08-3.07a4.82 4.82 0 0 1 2.73-1.73 5.9 5.9 0 0 1 2.11-3.36 5.79 5.79 0 0 1 3.75-1.31 5.78 5.78 0 0 1 3.68 1.28c1.08.85 1.78 1.95 2.1 3.3h.32c.9 0 1.72.22 2.48.65a4.83 4.83 0 0 1 1.81 1.78 4.82 4.82 0 0 1 .67 2.47 4.9 4.9 0 0 1-.63 2.44c-.42.75-1 1.35-1.73 1.8s-1.53.7-2.4.7c-.13 0-.2-.06-.2-.17v-1.33c0-.12.07-.18.2-.18.85-.04 1.58-.38 2.18-1.02a3.19 3.19 0 0 0 .9-2.26c0-.87-.33-1.62-.98-2.26a3.18 3.18 0 0 0-2.31-.96h-1.6c-.12 0-.18-.06-.18-.17l-.08-.58c-.1-1.08-.58-2-1.4-2.7a4.13 4.13 0 0 0-2.85-1.09c-1.1 0-2.05.36-2.85 1.1a4.02 4.02 0 0 0-1.36 2.71l-.07.53c0 .12-.07.2-.2.2l-.53.03a3.34 3.34 0 0 0-2.1 1.07c-.57.6-.85 1.33-.85 2.16a3.19 3.19 0 0 0 .9 2.26c.6.64 1.33.98 2.18 1.02.1 0 .17.06.17.18v1.33c0 .1-.06.17-.17.17a4.87 4.87 0 0 1-3.4-1.53c-.93-.96-1.37-2.1-1.37-3.43zM10 23.6c0-.04.01-.1.04-.2l1.63-5.77c.06-.2.17-.34.32-.44s.3-.15.46-.15a1.12 1.12 0 0 1 .24.03.75.75 0 0 1 .54.37c.12.2.15.42.08.67l-1.63 5.73c-.12.43-.4.64-.82.64-.04 0-.07-.01-.1-.02l-.1-.03a.83.83 0 0 1-.49-.33c-.1-.17-.16-.33-.16-.5zm2.62 2.8l2.44-8.77a.66.66 0 0 1 .3-.44c.16-.1.32-.15.5-.15a1.24 1.24 0 0 1 .27.03c.22.06.38.2.5.4s.13.4.07.64l-2.43 8.78c-.04.17-.13.3-.3.43s-.32.18-.5.18c-.1 0-.18-.02-.25-.05-.2-.05-.37-.18-.52-.4-.1-.18-.13-.4-.06-.65zm4.13-2.8c0-.04.01-.1.04-.23l1.63-5.77a.83.83 0 0 1 .3-.44c.15-.1.3-.15.46-.15a1.22 1.22 0 0 1 .26.03c.2.06.36.16.46.3s.15.3.15.47c0 .03-.01.08-.02.14l-.02.12-1.63 5.73c-.04.2-.13.35-.28.46s-.32.17-.5.17l-.24-.05c-.2-.06-.35-.16-.46-.32-.1-.15-.14-.3-.14-.47z"/></svg>