<svg xmlns="http://www.w3.org/2000/svg" viewBox="0 0 30 30" fill="white"><path d="M4.64 16.95c0-1.16.35-2.18 1.06-3.08s1.62-1.48 2.74-1.76c.3-1.36 1-2.48 2.1-3.36a5.79 5.79 0 0 1 3.75-1.31 5.78 5.78 0 0 1 3.68 1.28c1.08.85 1.78 1.95 2.1 3.3h.32c.9 0 1.72.22 2.48.66s1.37 1.04 1.8 1.8a4.88 4.88 0 0 1 .67 2.48c0 1.32-.46 2.47-1.4 3.42a4.71 4.71 0 0 1-3.38 1.5c-.13 0-.2-.06-.2-.17v-1.33c0-.12.07-.18.2-.18.85-.04 1.58-.38 2.18-1.02s.9-1.38.9-2.23c0-.9-.32-1.65-.97-2.3s-1.42-.97-2.32-.97h-1.6c-.12 0-.18-.06-.18-.17l-.08-.58a4.12 4.12 0 0 0-1.39-2.72 4.14 4.14 0 0 0-2.85-1.1c-1.1 0-2.05.37-2.86 1.1a4.1 4.1 0 0 0-1.37 2.75l-.06.5c0 .12-.07.2-.2.2l-.53.07a3.08 3.08 0 0 0-2.1 1.04 3.14 3.14 0 0 0-.85 2.19c0 .85.3 1.6.9 2.23s1.33.97 2.18 1.02c.1 0 .17.06.17.18v1.33c0 .1-.06.17-.17.17-1.34-.04-2.47-.54-3.4-1.5-.87-.96-1.33-2.1-1.33-3.43zM11 21.02a.8.8 0 0 1 .24-.58.79.79 0 0 1 .59-.24c.23 0 .43.08.6.24a.8.8 0 0 1 .24.58c0 .24-.08.44-.24.6-.16.17-.35.25-.6.25a.78.78 0 0 1-.59-.25c-.16-.16-.24-.36-.24-.6zm0 3.63c0-.24.08-.44.24-.6.16-.15.35-.23.58-.23a.84.84 0 0 1 .59.23.79.79 0 0 1 .24.59.79.79 0 0 1-.24.59c-.16.16-.35.23-.6.23a.84.84 0 0 1-.59-.23.8.8 0 0 1-.23-.58zm3.2-1.7c0-.23.08-.44.25-.62a.78.78 0 0 1 .57-.24c.23 0 .43.1.6.26s.26.37.26.6-.08.43-.25.6a.82.82 0 0 1-.61.25c-.23 0-.42-.08-.58-.25s-.24-.37-.24-.6zm0-3.62c0-.23.08-.43.25-.6.18-.16.37-.24.57-.24a.82.82 0 0 1 .61.25.8.8 0 0 1 .25.6.78.78 0 0 1-.25.59c-.17.16-.37.24-.6.24-.23 0-.42-.08-.58-.24-.16-.17-.24-.37-.24-.6zm0 7.28c0-.23.08-.43.25-.6a.78.78 0 0 1 .57-.24.82.82 0 0 1 .61.25c.17.17.25.37.25.6a.78.78 0 0 1-.25.59c-.17.16-.37.24-.6.24-.23 0-.42-.08-.58-.24-.16-.17-.24-.36-.24-.6zm3.22-5.6c0-.22.08-.4.25-.58s.37-.25.6-.25.43.08.6.24a.8.8 0 0 1 .24.58c0 .24-.08.44-.24.6-.16.17-.35.25-.6.25s-.44-.08-.6-.25c-.16-.16-.25-.36-.25-.6zm0 3.63c0-.22.08-.42.25-.6.16-.15.36-.23.6-.23s.43.08.6.23.23.35.23.6-.08.43-.23.6c-.16.16-.35.23-.6.23s-.44-.08-.6-.24c-.16-.15-.25-.34-.25-.57z"/></svg>